<?xml version="1.0" encoding="utf-8"?>
<!-- Generator: Adobe Illustrator 15.0.0, SVG Export Plug-In . SVG Version: 6.00 Build 0)  -->
<!DOCTYPE svg PUBLIC "-//W3C//DTD SVG 1.1//EN" "http://www.w3.org/Graphics/SVG/1.1/DTD/svg11.dtd">
<svg version="1.1" id="Layer_1" xmlns="http://www.w3.org/2000/svg" xmlns:xlink="http://www.w3.org/1999/xlink" x="0px" y="0px"
	 width="187.931px" height="350px" viewBox="0 0 187.931 350" enable-background="new 0 0 187.931 350" xml:space="preserve">
<g display="none">
	<path display="inline" fill-rule="evenodd" clip-rule="evenodd" fill="#282D2F" d="M153.107,220.888
		c15.692,34.688,7.157,60.284-32.387,37.876L153.107,220.888z"/>
	<path display="inline" fill-rule="evenodd" clip-rule="evenodd" fill="#DDDDDC" d="M140.782,106.751l5.415,3.214
		c0.485,7.647-0.695,20.734,5.011,24.708c2.926,2.04,5.82,0.006,8.688,1.369c6.219,2.956-1.748,12.354-6.412,12.354
		c-1.052,9.069-14.267,6.425-15.365,3.533L77.275,148.9c-6.009,1.868-12.149,2.583-14.542-3.019
		c-1.295-3.033,0.021-5.177,1.727-6.299c6.454-4.249,6.279-29.583,6.874-37.374L140.782,106.751z"/>
	<path display="inline" fill-rule="evenodd" clip-rule="evenodd" fill="#AEADAC" d="M140.751,105.689l5.403,2.609
		c0.096,1.235,0.127,2.645,0.156,4.137c-22.587,0.326-49.341,0.167-75.287-3.162c0.181-3.019,0.284-5.627,0.438-7.271
		L140.751,105.689z"/>
	<path display="inline" fill-rule="evenodd" clip-rule="evenodd" fill="#AEADAC" d="M79.259,149l-1.983-0.1
		c-5.729,1.78-11.575,2.514-14.182-2.273c6.284-1.451,7.001-3.404,10.93-14.075L79.259,149z"/>
	<path display="inline" fill-rule="evenodd" clip-rule="evenodd" fill="#AEADAC" d="M160.733,143.382
		c-1.802,2.696-4.933,5.014-7.25,5.014c-1.052,9.069-14.267,6.425-15.365,3.533l-0.746-0.037l0.142-17.199l5.313-8.272
		C146.39,138.723,152.63,143.333,160.733,143.382z"/>
	<path display="inline" fill-rule="evenodd" clip-rule="evenodd" fill="#DDDDDC" d="M97.269,344.685
		c45.825,0,83.201-6.344,83.201-14.123c0-7.776-37.376-14.12-83.201-14.12c-45.825,0-83.2,6.344-83.2,14.12
		C14.068,338.341,51.444,344.685,97.269,344.685z"/>
	<path display="inline" fill-rule="evenodd" clip-rule="evenodd" fill="#414548" d="M33.532,185.535
		c0.59-1.005-0.202-1.474-0.967-0.614c-7.815,8.794-18.767,25.149-23.376,32.572c-3.177,5.116-3.387,7.329,2.589,3.153
		c27.916,54.265,63.277,42.264,62.209-11.832l-4.58-16.41C49.217,198.865,49.36,197.766,33.532,185.535z"/>
	<path display="inline" fill-rule="evenodd" clip-rule="evenodd" fill="#282D2F" d="M15.814,227.951
		c15.988,26.905,33.657,33.357,45.284,23.61l-1.236-13.737l-11.677-23.148l-9.014,1.229c0.473,9.692-2.601,19.1,8.399,21.1
		l2.869,6.556c-11.43-1.216-19.588-4.392-28.917-11.21C19.074,230.563,17.219,229.115,15.814,227.951z"/>
	<path display="inline" fill-rule="evenodd" clip-rule="evenodd" fill="#F5C38B" d="M16.169,182.242
		c-5.996-1.129-8.568,0.357-3.095,4.847c-6.15,0.499-6.677,2.433-3.991,4.771c5.04,4.383,10.905,7.648,15.986,12.266l8.695-14.607
		C30.678,186.77,8.331,169.083,16.169,182.242z"/>
	<path display="inline" fill-rule="evenodd" clip-rule="evenodd" fill="#282D2F" d="M34.65,187.644
		c-1.546,13.497-11.098,21.714-21.083,31.033C21.463,208.699,28.76,198.588,34.65,187.644z"/>
	<path display="inline" fill-rule="evenodd" clip-rule="evenodd" fill="#414548" d="M138.329,229.81
		c1.98,9.94,2.813,56.568,9.674,69.507c6.646,12.525,16.444,8.516,15.606,1.65c3.36,1.497,4.842,7.063,4.368,11.936
		c-0.984,10.137-8.57,14.958-17.18,17.998c-29.602,10.453-73.394,10.354-102.71,0c-6.031-2.128-21.413-9.575-12.357-22.215
		c-0.84,6.866,8.959,10.876,15.604-1.649c6.863-12.938,7.242-63.646,9.221-73.587C94.878,228.201,124.894,217.598,138.329,229.81z"
		/>
	<path display="inline" fill-rule="evenodd" clip-rule="evenodd" fill="#282D2F" d="M140.195,249.43
		c1.341,17.714,3.238,41.271,7.81,49.887c6.645,12.525,16.442,8.519,15.604,1.65c3.36,1.497,4.842,7.063,4.368,11.936
		c-0.984,10.137-8.57,14.958-17.18,17.998c-11.902,4.201-26.099,6.698-40.726,7.51c33.497-20.216,34.215-40.643,26.202-83.377
		L140.195,249.43z"/>
	<path display="inline" fill-rule="evenodd" clip-rule="evenodd" fill="#282D2F" d="M138.329,229.81
		c1.089,5.469,1.832,22.043,3.421,38.001l-0.078,0.076c-5.455,5.35-9.896,8.051-9.222,1.283
		c-13.326,9.837-23.796,14.292-40.777,16.465c-11.908,1.523-24.116,1.008-35.125-3.092c2.119-19.268,2.73-42.676,4.008-49.094
		C94.878,228.201,124.894,217.598,138.329,229.81z"/>
	<path display="inline" fill="#282D2F" d="M109.048,307.267c-0.207,1.021-1.205,1.679-2.227,1.47
		c-1.02-0.207-1.68-1.204-1.472-2.227c1.286-6.247,2.016-12.198,2.204-18.161s-0.162-11.959-1.033-18.297
		c-0.139-1.032,0.588-1.983,1.62-2.122s1.983,0.587,2.122,1.62c0.898,6.531,1.258,12.729,1.063,18.917
		C111.13,294.652,110.377,300.813,109.048,307.267z"/>
	<path display="inline" fill="#282D2F" d="M117.057,302.885c-0.062,1.039-0.956,1.834-1.997,1.772
		c-1.042-0.06-1.836-0.955-1.775-1.996c0.383-6.361,0.255-12.355-0.408-18.293c-0.663-5.923-1.865-11.807-3.63-17.957
		c-0.286-1.004,0.297-2.052,1.302-2.337c1.004-0.285,2.051,0.297,2.337,1.302c1.817,6.336,3.06,12.421,3.748,18.578
		C117.319,290.098,117.452,296.3,117.057,302.885z"/>
	<g display="inline">
		<path fill="#BD9F5F" d="M111.23,304.381c-0.208,1.02-1.205,1.679-2.226,1.472c-1.021-0.209-1.681-1.206-1.473-2.227
			c1.287-6.249,2.016-12.2,2.204-18.162c0.188-5.963-0.163-11.959-1.032-18.297c-0.14-1.032,0.586-1.983,1.619-2.122
			s1.984,0.586,2.122,1.619c0.897,6.531,1.258,12.73,1.063,18.918C113.312,291.769,112.56,297.927,111.23,304.381z"/>
		<g>
			<path fill="#90703A" d="M107.512,304.26c-0.02-0.137-0.022-0.276-0.011-0.418c1.711-2.977,2.322-3.961,4.744-5.03
				c-0.17,1.069-0.354,2.145-0.556,3.229C110.709,302.817,109.463,303.341,107.512,304.26z"/>
			<path fill="#90703A" d="M109.25,292.635c0.073-0.71,0.139-1.418,0.198-2.124c1.008-1.5,1.893-2.198,3.982-3.04
				c-0.041,0.829-0.094,1.658-0.154,2.488C112.302,291.173,111.185,291.73,109.25,292.635z"/>
			<path fill="#90703A" d="M109.786,282.145c-0.002-0.799-0.013-1.599-0.033-2.401c0.879-1.138,1.807-1.759,3.686-2.504
				c0.032,0.688,0.059,1.374,0.078,2.059C112.562,280.694,111.546,281.304,109.786,282.145z"/>
			<path fill="#90703A" d="M109.218,271.46c-0.066-0.658-0.139-1.319-0.218-1.983c0.905-1.326,1.731-2.016,3.452-2.76
				c0.107,0.778,0.206,1.551,0.297,2.319C111.862,270.129,110.854,270.688,109.218,271.46z"/>
		</g>
		<path fill="#BD9F5F" d="M119.239,299.999c-0.061,1.039-0.956,1.836-1.997,1.774c-1.042-0.062-1.835-0.955-1.775-1.996
			c0.383-6.363,0.255-12.357-0.409-18.294c-0.662-5.923-1.863-11.807-3.63-17.957c-0.285-1.005,0.298-2.052,1.302-2.337
			c1.005-0.286,2.052,0.297,2.338,1.303c1.818,6.334,3.06,12.42,3.748,18.577C119.502,287.213,119.635,293.416,119.239,299.999z"/>
		<g>
			<path fill="#90703A" d="M115.483,299.515c0.033-0.585,0.063-1.166,0.088-1.742c1.078-1.722,1.886-2.489,3.877-3.343
				c-0.013,0.892-0.036,1.792-0.069,2.696C118.442,298.123,117.321,298.657,115.483,299.515z"/>
			<path fill="#90703A" d="M115.593,288.512c-0.026-0.665-0.061-1.327-0.101-1.988c0.939-1.396,1.774-2.096,3.579-2.867
				c0.069,0.8,0.129,1.6,0.179,2.404C118.344,287.154,117.303,287.708,115.593,288.512z"/>
			<path fill="#90703A" d="M114.644,278.26c-0.08-0.55-0.164-1.099-0.254-1.649c0.954-1.505,1.715-2.266,3.313-3.021
				c0.153,0.826,0.297,1.651,0.43,2.477C117.267,276.985,116.243,277.51,114.644,278.26z"/>
			<path fill="#90703A" d="M112.587,267.851c-0.09-0.36-0.182-0.723-0.275-1.085c1.021-1.727,1.697-2.623,3.006-3.389
				c0.239,0.857,0.469,1.71,0.688,2.561C115.159,266.647,114.12,267.137,112.587,267.851z"/>
		</g>
	</g>
	<path display="inline" fill-rule="evenodd" clip-rule="evenodd" fill="#F5C38B" d="M138.505,153.533l-4.844,23.006l-60.24-4.541
		c-1.217-20.694-1.826-40.315-1.201-60.667C72.715,95.21,82.386,89.7,94.597,88.556c25.875-2.425,45.241,3.813,46.621,17.436
		C142.597,119.625,140.753,134.891,138.505,153.533z"/>
	<path display="inline" fill-rule="evenodd" clip-rule="evenodd" fill="#F09B61" d="M128.467,157.593
		c-6.063-6.1,0.515-24.26,10.365-18.355C130.029,138.469,125.359,147.638,128.467,157.593z"/>
	<path display="inline" fill-rule="evenodd" clip-rule="evenodd" fill="#F09B61" d="M80.09,155.533
		c4.468-4.495-0.378-17.876-7.636-13.525C78.939,141.442,82.381,148.197,80.09,155.533z"/>
	<path display="inline" fill-rule="evenodd" clip-rule="evenodd" fill="#D49366" d="M72.324,109.461
		c1.166-14.679,10.547-19.806,22.273-20.905c25.875-2.425,45.241,3.813,46.621,17.436c0.215,2.128,0.351,4.297,0.42,6.512
		C120.463,112.729,96.094,112.394,72.324,109.461z"/>
	<path display="inline" fill-rule="evenodd" clip-rule="evenodd" fill="#DDDDDC" d="M73.118,154.744
		c-13.053,5.392-24.595,11.775-32.084,22.963c-2.869,4.285-3.81,9.879,0.906,8.52c-5.872,13.471-6.808,28.451-0.81,42.124
		c1.852,4.222,4.679,6.4,6.864,2.374c4.788,9.896,8.222,20.488,1.36,26.395c-7.045,6.062-10.34,7.274-4.679,11.296
		c13.623,9.679,30.596,11.447,46.999,9.35c16.981-2.173,27.451-6.629,40.777-16.464c-0.674,6.766,3.767,4.066,9.222-1.285
		c10.313-10.113,15.017-16.021,18.327-29.593c0.741,6.427,4.021,4.27,5.727,0.412c11.761-26.601-11.832-63.025-26.614-83.659
		C132.868,169.641,83.837,173.311,73.118,154.744z"/>
	<path display="inline" fill-rule="evenodd" clip-rule="evenodd" fill="#AEADAC" d="M42.285,263.479
		c-1.044,1.587-0.473,2.901,2.39,4.936c13.623,9.679,30.596,11.447,46.999,9.35c16.981-2.173,27.451-6.629,40.777-16.464
		c-0.674,6.766,3.767,4.066,9.222-1.285c10.313-10.113,15.017-16.021,18.327-29.593c0.741,6.427,4.021,4.27,5.727,0.412
		c7.934-17.944-0.222-40.361-10.911-59.385c2.924,11.263,5.167,21.935,6.475,33.431c0.594,5.229,0.467,21.301-5.227,8.287
		c-5.063,14.936-8.812,24.063-19.723,35.463c-2.924,3.055-7.654,3.271-7.219-3.375C105.981,274.005,72.538,277.133,42.285,263.479z"
		/>
	<path display="inline" fill-rule="evenodd" clip-rule="evenodd" fill="#AEADAC" d="M61.351,158.714
		c6.036,12.357,23.873,24.118,38.104,18.885c14.88,4.421,38.538-6.331,43.311-22.219C111.195,172.046,70.165,166.981,61.351,158.714
		z"/>
	<path display="inline" fill-rule="evenodd" clip-rule="evenodd" fill="#DDDDDC" d="M142.521,146.137
		c-1.444-0.15-3.304,0.252-5.412,1.317c-2.766,1.397-4.181,1.75-8.076,1.219c-12.781-1.742-18.058,0.899-30.866,7.809
		c-4.306-7.073-18.787-9.389-27.25-9.026c-0.911,0.039-1.772,0.099-2.523,0.198c-2.416,0.317-3.974-0.03-6.059-1.491
		c-2.193-1.535-4.836-1.57-5.133,2.611c-1.154,16.202,24.986,30.633,42.253,24.284c15.823,4.703,38.374-5.996,45.111-19.542
		C146.726,149.17,145.523,146.448,142.521,146.137z"/>
	<path display="inline" fill-rule="evenodd" clip-rule="evenodd" fill="#F09B61" d="M99.152,97.228
		c-5.144,23.719-6.08,42.232-3.634,66.295l13.926-15.136l-11.503,6.66C97.056,135.121,97.739,117.01,99.152,97.228z"/>
	<path display="inline" fill-rule="evenodd" clip-rule="evenodd" fill="#414548" d="M38.609,100.255
		c48.046,12.788,107.434,8.906,140.157,8.778l-35.722-9.687c-4.375-27.783-10.949-51.559-3.175-77.83
		c1.261-4.265,1.884-5.578,4.517-7.556c3.059-2.298,1.5-4.944-2.168-4.597c-7.689,0.729-13.065,2.446-20.615,6.403
		C90.311,32.171,79.33,58.295,73.421,96.017L38.609,100.255z"/>
	<path display="inline" fill-rule="evenodd" clip-rule="evenodd" fill="#282D2F" d="M143.203,109.609
		c13.565-0.163,25.762-0.538,35.563-0.576l-35.722-9.687c-4.375-27.783-10.949-51.559-3.175-77.83
		c1.261-4.265,1.884-5.578,4.517-7.556c0.439-0.329,0.781-0.666,1.039-1c-16.157,1.666-17.721,34.541-15.853,54.919
		c0.914,9.99,5.332,23.073,0.352,32.483C138.572,102.887,141.038,103.204,143.203,109.609z"/>
	<path display="inline" fill-rule="evenodd" clip-rule="evenodd" fill="#5D666D" d="M66.812,96.822l-21.9,2.666
		c17.007,4.662,37.298,7.677,51.88,7.491c8.232-0.105,6.304-3.81,0.1-4.07C86.318,102.466,76.753,99.953,66.812,96.822z"/>
	<path display="inline" fill-rule="evenodd" clip-rule="evenodd" fill="#5D666D" d="M145.546,10.271
		c-0.608-0.667-1.78-1.054-3.327-0.907c-7.689,0.729-13.065,2.446-20.615,6.403C93.233,30.639,81.558,53.5,75.222,85.75
		c7.402,5.861,13.47,2.3,16.086-7.05c4.791-17.121,8.65-32.079,21.831-47.74C123.075,19.153,131.964,13.347,145.546,10.271z"/>
	<path display="inline" fill-rule="evenodd" clip-rule="evenodd" fill="#DDDDDC" d="M126.011,113.724
		c-3.139-1.125-5.701-0.561-9.215,0.685c-3.721,1.319-5.572,1.114-6.424-0.842c-1.543-3.544,0.381-5.601,3.175-6.655
		c5.341-2.014,11.826-2.326,15.615,0.182c3.039,2.011,3.235,4.36,2.54,5.71C130.828,114.5,129.617,115.015,126.011,113.724z"/>
	<path display="inline" fill-rule="evenodd" clip-rule="evenodd" fill="#23211D" d="M121.1,128.861c2.917,0,5.296-2.38,5.296-5.298
		c0-2.917-2.379-5.297-5.296-5.297c-2.919,0-5.298,2.38-5.298,5.297C115.802,126.481,118.181,128.861,121.1,128.861z"/>
	<path display="inline" fill-rule="evenodd" clip-rule="evenodd" fill="#23211D" d="M83.259,124.775c1.834,0,3.33-1.496,3.33-3.33
		s-1.496-3.33-3.33-3.33s-3.33,1.496-3.33,3.33S81.425,124.775,83.259,124.775z"/>
	<path display="inline" fill-rule="evenodd" clip-rule="evenodd" fill="#F09B61" d="M113.93,124.409
		c-1.989,8.368,9.111,17.054,14.434,6.876C121.255,136.535,114.938,128.798,113.93,124.409z"/>
	<path display="inline" fill-rule="evenodd" clip-rule="evenodd" fill="#F09B61" d="M86.176,124.409
		c1.112,4.675-5.09,9.527-8.063,3.842C82.084,131.182,85.612,126.861,86.176,124.409z"/>
	<path display="inline" fill-rule="evenodd" clip-rule="evenodd" fill="#DDDDDC" d="M87.318,112.177
		c-2.145-0.769-3.896-0.383-6.295,0.467c-2.541,0.902-3.806,0.761-4.388-0.575c-1.054-2.422,0.259-3.826,2.168-4.546
		c3.648-1.376,8.079-1.589,10.667,0.124c2.076,1.374,2.211,2.979,1.735,3.9C90.608,112.708,89.782,113.059,87.318,112.177z"/>
	<path display="inline" fill-rule="evenodd" clip-rule="evenodd" fill="#F5C38B" d="M138.354,120.385
		c9.309-2.658,14.601-3.148,15.18,3.507c0.908,10.502-9.264,6.062-15.634,4.515L138.354,120.385z"/>
	<path display="inline" fill-rule="evenodd" clip-rule="evenodd" fill="#F5C38B" d="M74.335,120.124
		c-7.217-2.063-11.322-2.442-11.77,2.718c-0.707,8.145,7.183,4.701,12.123,3.501L74.335,120.124z"/>
	<path display="inline" fill-rule="evenodd" clip-rule="evenodd" fill="#F09B61" d="M141.078,125.683
		c2.548-2.904,7.462-6.391,10.595-0.757C147.162,123.502,145.536,123.957,141.078,125.683z"/>
	<path display="inline" fill-rule="evenodd" clip-rule="evenodd" fill="#F09B61" d="M70.243,124.472
		c-1.565-2.904-4.584-6.391-6.509-0.757C66.505,122.292,67.504,122.747,70.243,124.472z"/>
	<path display="inline" fill-rule="evenodd" clip-rule="evenodd" fill="#5D666D" d="M56.271,284.964
		c2.008,0.306,4.021,0.592,5.925,0.957c7.575,1.452,13.393,4.147,10.111,14.215c-10.498,32.216-36.403,19.611-35.085,13.342
		c2.905,3.022,9.327,2.579,14.112-6.441C53.58,302.805,55.131,294.529,56.271,284.964z"/>
	<g display="inline">
		<path fill-rule="evenodd" clip-rule="evenodd" fill="#BC8256" d="M19.404,328.732l-1.52-231.742
			c-6.118-8.835-7.23-9.604-3.816-19.846c-2.645-14.866-2.84-22.089,4.546-29.244c8.46-8.197,20.304-4.428,13.772,8.634
			c8.779,12.541,4.392,18.054-6.87,26.715c6.154,4.593,2.762,8.452-0.763,13.74L24,328.829
			C23.989,332.152,19.404,331.933,19.404,328.732z"/>
		<path fill-rule="evenodd" clip-rule="evenodd" fill="#855737" d="M34.047,47.88c0.547,2.136,0.149,5.039-1.66,8.656
			c8.779,12.541,4.392,18.054-6.87,26.715c6.154,4.593,2.762,8.452-0.763,13.74L24,328.829c-0.006,1.661-1.152,2.437-2.298,2.398
			V230.951L20.938,93.174c3.823-3.823,1.895-6.128-0.763-10.304c7.399-6.547,11.596-11.21,9.922-29.006
			C31.944,51.895,33.04,50,34.047,47.88z"/>
		<path fill-rule="evenodd" clip-rule="evenodd" fill="#855737" d="M22.004,58.903c-0.781,3.437,0.981,6.177,2.209,5.861
			c1.579-0.406,2.68-4.83,0.646-8.403c-1.75-3.073-4.494-4.099-6.539,1.514c-2.271,6.233-0.897,14.292,2.637,20.646
			c-6.129-4.255-6.653-14.25-4.454-21.26c2.896-9.23,7.134-7.018,10.067-1.58c3.533,6.55,0.46,11.768-2.465,11.713
			C21.44,67.345,18.874,62.481,22.004,58.903z"/>
	</g>
	<path display="inline" fill-rule="evenodd" clip-rule="evenodd" fill="#F5C38B" d="M30.141,188.62
		c-12.258-7.614-14.461-4.667-4.682,5.811L30.141,188.62z"/>
	<path display="inline" fill-rule="evenodd" clip-rule="evenodd" fill="#DDDDDC" d="M143.036,117.632l-1.229-4.849
		c-2.482,2.786-3.456,4.005-4.935,6.937c-1.342,2.662-1.814,4.747-0.252,5.787C142.031,129.112,142.063,120.369,143.036,117.632z"/>
	<path display="inline" fill-rule="evenodd" clip-rule="evenodd" fill="#DDDDDC" d="M70.605,117.613l0.959-5.041
		c0.976,1.932,1.801,3.739,2.382,5.773c0.527,1.846,0.712,3.292,0.1,4.013C71.92,124.857,70.987,119.511,70.605,117.613z"/>
	<path display="inline" fill="#BD9F5F" d="M71.977,96.384c-1.018-0.232-1.652-1.246-1.42-2.263c0.232-1.017,1.246-1.652,2.263-1.42
		c12.103,2.809,23.656,4.516,35.266,5.173c11.612,0.657,23.301,0.267,35.674-1.121c1.037-0.113,1.972,0.635,2.088,1.672
		c0.111,1.037-0.637,1.972-1.676,2.085c-12.565,1.409-24.458,1.805-36.293,1.135C96.041,100.975,84.28,99.24,71.977,96.384z"/>
	<g display="inline">
		<path fill="#90703A" d="M75.336,93.271c0.777,0.171,1.551,0.337,2.324,0.501c1.196,1.11,1.729,2.126,2.289,4.319
			c-0.741-0.145-1.482-0.293-2.226-0.448C76.457,96.481,76.01,95.327,75.336,93.271z"/>
		<path fill="#90703A" d="M86.343,95.417c0.784,0.131,1.565,0.259,2.346,0.38c1.118,1.065,1.639,2.071,2.176,4.147
			c-0.72-0.103-1.441-0.21-2.162-0.321C87.45,98.487,86.987,97.368,86.343,95.417z"/>
		<path fill="#90703A" d="M96.577,96.877c0.82,0.095,1.643,0.186,2.463,0.271c0.973,0.998,1.459,2.015,1.965,3.987
			c-0.65-0.06-1.302-0.123-1.953-0.188C97.703,99.806,97.202,98.732,96.577,96.877z"/>
		<path fill="#90703A" d="M107.323,97.829l0.762,0.045c0.525,0.029,1.053,0.058,1.578,0.083c1.009,0.994,1.512,1.974,2.016,3.866
			c-0.682-0.024-1.361-0.054-2.042-0.086C108.408,100.65,107.921,99.594,107.323,97.829z"/>
		<path fill="#90703A" d="M117.629,98.179c0.724,0.005,1.446,0.007,2.171,0.005c1.081,1.008,1.618,1.945,2.128,3.76
			c-0.724,0.01-1.445,0.015-2.166,0.018C118.666,100.924,118.201,99.878,117.629,98.179z"/>
		<path fill="#90703A" d="M128.398,97.974c0.708-0.032,1.415-0.067,2.127-0.106c1.065,0.993,1.604,1.912,2.106,3.661
			c-0.714,0.045-1.426,0.086-2.136,0.125C129.423,100.638,128.956,99.614,128.398,97.974z"/>
		<path fill="#90703A" d="M138.628,97.275c0.605-0.055,1.214-0.112,1.822-0.173c1.23,1.05,1.841,1.91,2.369,3.558
			c-0.784,0.083-1.563,0.162-2.341,0.238C139.587,99.929,139.164,98.892,138.628,97.275z"/>
	</g>
	<path display="inline" fill-rule="evenodd" clip-rule="evenodd" fill="#CECECD" d="M77.533,230.246
		c-1.552-23.674,0.909-27.277,11.596-42.797C72.09,202.148,73.804,213.135,77.533,230.246z"/>
	<path display="inline" fill-rule="evenodd" clip-rule="evenodd" fill="#CECECD" d="M74.256,250.527
		c18.32-12.396,8.079-39.764,20.2-57.136C78.365,211.122,89.452,233.164,74.256,250.527z"/>
	<path display="inline" fill-rule="evenodd" clip-rule="evenodd" fill="#CECECD" d="M115.424,188.256
		c5.64,13.012,4.087,27.828,1.196,38.715C125.785,212.257,121.571,197.016,115.424,188.256z"/>
	<path display="inline" fill-rule="evenodd" clip-rule="evenodd" fill="#CECECD" d="M59.058,210.375
		c0.909-10.298,9.042-19.381,16.575-25.475C60.771,191.394,57.579,202.663,59.058,210.375z"/>
	<path display="inline" fill-rule="evenodd" clip-rule="evenodd" fill="#CECECD" d="M115.065,154.037
		c3.932,6.66,3.986,12.088,2.222,17.126C123.576,165.332,119.969,157.216,115.065,154.037z"/>
	<path display="inline" fill-rule="evenodd" clip-rule="evenodd" fill="#CECECD" d="M120.25,153.535
		c4.113,3.339,5.442,6.811,5.512,10.466C128.409,158.757,124.157,154.407,120.25,153.535z"/>
	<path display="inline" fill-rule="evenodd" clip-rule="evenodd" fill="#CECECD" d="M79.607,151.692
		c-4.112,3.338-5.442,6.811-5.511,10.466C71.45,156.913,75.701,152.564,79.607,151.692z"/>
</g>
<g>
	<path fill-rule="evenodd" clip-rule="evenodd" fill="#DDDDDC" d="M133.605,102.711l3.812,0.733
		c0.815,7.499,2.051,22.623,8.1,26.304c3.106,1.889,6.008-0.224,9.022,1.003c6.541,2.66-1.292,12.213-6.105,12.396
		c-0.711,8.956-14.457,6.879-15.708,4.078l-62.911-0.581c-6.124,2.074-17.058-1.207-19.757-6.622
		c-1.462-2.93-0.313-7.22,1.521-6.259c10.717,5.624,10.811-22.898,10.176-32.784L133.605,102.711z"/>
	<path fill-rule="evenodd" clip-rule="evenodd" fill="#AEADAC" d="M132.045,101.669l5.564,2.352c0.146,1.209,0.234,2.595,0.326,4.06
		c-22.796,1.212-49.815,2.107-76.147-0.143c0.061-2.974,0.058-5.542,0.147-7.164L132.045,101.669z"/>
	<path fill-rule="evenodd" clip-rule="evenodd" fill="#AEADAC" d="M71.866,146.665l-2.051-0.021
		c-5.837,1.977-11.84,2.927-14.729-1.675c6.425-1.675,7.084-3.623,10.697-14.268L71.866,146.665z"/>
	<path fill-rule="evenodd" clip-rule="evenodd" fill="#AEADAC" d="M155.708,137.934c-1.748,2.721-4.883,5.124-7.274,5.214
		c-0.105,10.772-16.068,8.691-17.32,5.892l0.276-18.732l1.312-11.163C135.409,134.254,145.045,143.129,155.708,137.934z"/>
	<path fill-rule="evenodd" clip-rule="evenodd" fill="#DDDDDC" d="M95.443,339.47c45.082,0,81.852-7.247,81.852-14.898
		s-36.769-13.894-81.851-13.894s-81.852,6.242-81.852,13.894S50.361,339.47,95.443,339.47z"/>
	<path fill-rule="evenodd" clip-rule="evenodd" fill="#414548" d="M135.839,225.452c1.946,9.778,2.765,55.65,9.518,68.379
		c6.536,12.322,16.178,8.38,15.352,1.623c3.307,1.474,4.765,6.949,4.299,11.742c-0.968,9.975-8.433,14.716-16.903,17.707
		c-29.12,10.284-72.203,10.185-101.043,0c-5.934-2.096-21.066-9.421-12.157-21.855c-0.826,6.756,8.814,10.7,15.352-1.622
		c6.752-12.728,7.125-62.614,9.071-72.393C93.093,223.868,122.621,213.438,135.839,225.452z"/>
	<path fill-rule="evenodd" clip-rule="evenodd" fill="#282D2F" d="M135.839,225.452c1.096,5.504,1.834,22.443,3.475,38.471
		c-5.471,6.858-13.189,12.191-28.65,19.253c-3.49,1.595-32.416,11.188-22.523-2.676c5.841-8.187-1.75-14.562-16.591-18.426
		c0.663,6.657-3.707,4.001-9.073-1.263c-1.95-1.912-3.693-3.672-5.265-5.36c0.798-11.957,1.327-22.466,2.114-26.418
		C93.093,223.868,122.621,213.438,135.839,225.452z"/>
	<g>
		<path fill="#282D2F" d="M123.063,289.763c-0.206,1.003-1.187,1.65-2.191,1.447c-1.005-0.205-1.652-1.187-1.447-2.189
			c1.266-6.149,1.983-12.003,2.168-17.868c0.185-5.867-0.16-11.766-1.016-18c-0.137-1.016,0.577-1.951,1.593-2.089
			c1.016-0.135,1.95,0.577,2.088,1.595c0.884,6.425,1.237,12.522,1.046,18.609C125.109,277.354,124.368,283.413,123.063,289.763z"/>
		<path fill="#282D2F" d="M130.94,285.45c-0.06,1.025-0.94,1.807-1.964,1.746c-1.025-0.059-1.808-0.939-1.748-1.963
			c0.377-6.261,0.251-12.157-0.401-17.998c-0.652-5.828-1.836-11.614-3.572-17.665c-0.279-0.987,0.293-2.019,1.281-2.3
			c0.989-0.279,2.019,0.292,2.3,1.281c1.789,6.234,3.01,12.221,3.687,18.277C131.198,272.873,131.33,278.975,130.94,285.45z"/>
		<g>
			<path fill="#BD9F5F" d="M125.208,286.924c-0.203,1.005-1.184,1.653-2.188,1.447c-1.005-0.205-1.654-1.187-1.448-2.189
				c1.266-6.148,1.981-12.003,2.169-17.868c0.184-5.865-0.161-11.765-1.018-17.999c-0.137-1.017,0.577-1.951,1.593-2.088
				c1.018-0.137,1.952,0.577,2.089,1.593c0.883,6.425,1.236,12.524,1.044,18.611C127.256,274.516,126.517,280.575,125.208,286.924z"
				/>
			<g>
				<path fill="#90703A" d="M121.55,286.806c-0.019-0.136-0.021-0.272-0.01-0.412c1.683-2.929,2.284-3.896,4.668-4.948
					c-0.168,1.052-0.35,2.109-0.548,3.175C124.696,285.385,123.469,285.901,121.55,286.806z"/>
				<path fill="#90703A" d="M123.261,275.367c0.073-0.697,0.135-1.394,0.194-2.088c0.992-1.477,1.862-2.162,3.917-2.99
					c-0.04,0.814-0.09,1.63-0.151,2.447C126.262,273.931,125.165,274.479,123.261,275.367z"/>
				<path fill="#90703A" d="M123.787,265.048c-0.001-0.786-0.012-1.572-0.032-2.361c0.865-1.12,1.778-1.729,3.626-2.466
					c0.032,0.678,0.058,1.353,0.077,2.026C126.52,263.622,125.52,264.221,123.787,265.048z"/>
				<path fill="#90703A" d="M123.229,254.538c-0.066-0.647-0.139-1.299-0.216-1.952c0.892-1.307,1.704-1.982,3.397-2.715
					c0.105,0.765,0.2,1.524,0.292,2.282C125.83,253.226,124.837,253.776,123.229,254.538z"/>
			</g>
			<path fill="#BD9F5F" d="M133.088,282.612c-0.061,1.025-0.941,1.806-1.965,1.746c-1.025-0.06-1.807-0.938-1.746-1.964
				c0.377-6.259,0.249-12.156-0.403-17.996c-0.65-5.828-1.834-11.616-3.57-17.666c-0.282-0.988,0.292-2.02,1.281-2.299
				c0.987-0.281,2.018,0.292,2.299,1.279c1.789,6.234,3.011,12.221,3.687,18.277C133.346,270.034,133.477,276.137,133.088,282.612z"
				/>
			<g>
				<path fill="#90703A" d="M129.392,282.136c0.034-0.574,0.063-1.145,0.087-1.712c1.061-1.694,1.855-2.45,3.815-3.29
					c-0.014,0.879-0.035,1.762-0.07,2.652C132.304,280.768,131.2,281.295,129.392,282.136z"/>
				<path fill="#90703A" d="M129.5,271.313c-0.025-0.654-0.06-1.306-0.099-1.956c0.924-1.373,1.746-2.062,3.521-2.822
					c0.067,0.787,0.126,1.575,0.176,2.366C132.205,269.977,131.183,270.522,129.5,271.313z"/>
				<path fill="#90703A" d="M128.567,261.227c-0.08-0.541-0.163-1.081-0.25-1.622c0.938-1.481,1.686-2.23,3.258-2.972
					c0.15,0.812,0.293,1.624,0.424,2.435C131.147,259.974,130.14,260.489,128.567,261.227z"/>
				<path fill="#90703A" d="M126.544,250.985c-0.088-0.354-0.181-0.711-0.271-1.067c1.004-1.697,1.67-2.58,2.957-3.333
					c0.235,0.844,0.462,1.684,0.676,2.518C129.073,249.805,128.053,250.282,126.544,250.985z"/>
			</g>
		</g>
	</g>
	<path fill-rule="evenodd" clip-rule="evenodd" fill="#282D2F" d="M137.676,244.755c1.317,17.425,3.184,40.599,7.681,49.076
		c6.536,12.322,16.178,8.38,15.352,1.623c3.307,1.474,4.765,6.949,4.299,11.742c-0.968,9.975-8.433,14.716-16.903,17.707
		c-11.708,4.135-25.675,6.592-40.064,7.387c32.956-19.887,33.66-39.982,25.777-82.025L137.676,244.755z"/>
	<path fill-rule="evenodd" clip-rule="evenodd" fill="#F5C38B" d="M131.88,148.786l-3.854,22.807l-59.396-2.091
		c-2.012-20.294-3.384-39.559-3.571-59.588C64.91,94.048,74.2,88.25,86.159,86.645c25.34-3.402,44.622,1.967,46.514,15.303
		C134.565,115.295,133.354,130.374,131.88,148.786z"/>
	<path fill-rule="evenodd" clip-rule="evenodd" fill="#F09B61" d="M120.815,155.957c-5.709-6.248,1.511-23.825,10.948-17.613
		C123.144,137.224,118.173,146.042,120.815,155.957z"/>
	<path fill-rule="evenodd" clip-rule="evenodd" fill="#F09B61" d="M73.35,151.928c4.578-4.234,0.368-17.587-6.945-13.61
		C72.802,138.031,75.906,144.812,73.35,151.928z"/>
	<path fill-rule="evenodd" clip-rule="evenodd" fill="#D49366" d="M65.087,108.071c0.569-14.475,9.588-19.885,21.072-21.426
		c25.34-3.402,44.622,1.967,46.514,15.303c0.296,2.084,0.516,4.21,0.67,6.384C112.539,109.387,88.569,110.019,65.087,108.071z"/>
	<path fill-rule="evenodd" clip-rule="evenodd" fill="#DDDDDC" d="M132.54,148.378c12.841,5.304,21.512,20.116,27.127,31.256
		c2.285,4.531,2.945,9.921-1.694,8.584c5.777,13.252,6.698,27.989,0.798,41.441c-1.823,4.152-4.604,6.297-6.753,2.335
		c-11.911,24.616-12.696,31.803-42.768,45.537c-3.488,1.596-32.412,11.188-22.521-2.675c5.843-8.188-1.75-14.563-16.59-18.428
		c0.663,6.659-3.707,4.001-9.073-1.262c-10.145-9.95-14.771-15.762-18.028-29.113c-0.73,6.321-3.958,4.2-5.636,0.406
		c-11.57-26.169,9.627-69.058,30.216-80.491C73.757,168.073,121.994,166.646,132.54,148.378z"/>
	<path fill-rule="evenodd" clip-rule="evenodd" fill="#CECECD" d="M85.772,225.495c-5.458-22.693-3.672-26.597,4.096-43.428
		C75.804,199.162,79.301,209.529,85.772,225.495z"/>
	<path fill-rule="evenodd" clip-rule="evenodd" fill="#CECECD" d="M85.982,245.706c15.692-15.078,1.192-39.903,10.042-58.768
		C83.385,206.814,97.815,226.335,85.982,245.706z"/>
	<path fill-rule="evenodd" clip-rule="evenodd" fill="#CECECD" d="M115.497,178.457c7.641,11.674,8.608,26.298,7.625,37.336
		C129.548,199.997,122.916,185.925,115.497,178.457z"/>
	<path fill-rule="evenodd" clip-rule="evenodd" fill="#CECECD" d="M64.543,209.315c-0.84-10.136,5.529-20.3,11.815-27.465
		C63.033,190.628,61.82,202.085,64.543,209.315z"/>
	<g>
		<path fill-rule="evenodd" clip-rule="evenodd" fill="#AEADAC" d="M156.192,173.088c1.27,2.254,2.427,4.464,3.475,6.546
			c2.285,4.531,2.945,9.921-1.694,8.584c5.777,13.252,6.698,27.989,0.798,41.441c-1.823,4.152-4.604,6.297-6.753,2.335
			c-11.911,24.616-12.696,31.803-42.768,45.537c-3.442,1.573-31.653,10.936-22.887-2.143c6.596-0.149,17.232-3.782,19.26-4.71
			c30.071-13.733,30.856-20.92,42.768-45.537c2.147,3.962,4.93,1.818,6.752-2.336c5.9-13.451,4.88-25.272-0.897-38.523
			C158.779,185.591,158.351,177.553,156.192,173.088L156.192,173.088z M85.066,262.992c0.286-5.793-6.897-10.379-18.555-13.414
			c0.664,6.657-3.706,4.001-9.072-1.263c-5.005-4.908-8.666-8.811-11.483-13.105c3.142,7.528,7.625,12.617,15.11,19.958
			c5.366,5.263,9.736,7.921,9.073,1.262C76.72,258.145,81.875,260.353,85.066,262.992L85.066,262.992z M42.446,228.636
			c-1.222,2.944-3.661,0.954-5.044-2.175c-0.533-1.204-0.994-2.442-1.391-3.714c1.449,1.085,2.933,0.491,3.399-3.545
			C40.294,222.823,41.278,225.891,42.446,228.636z"/>
	</g>
	<path fill-rule="evenodd" clip-rule="evenodd" fill="#AEADAC" d="M126.699,148.184c2.277,0.407,3.764,0.126,5.793-1.228
		c2.135-1.423,4.638-1.353,4.761,2.769c0.479,15.972-24.815,29.128-40.921,22.207c-15.159,4-36.1-7.404-41.963-20.986
		c-2.787-6.457,0.594-9.038,6.611-5.564c2.565,1.482,4.569,1.783,8.276,1.414c12.166-1.207,14.447,3.507,26.309,10.804
		C100.28,146.063,119.425,146.88,126.699,148.184z"/>
	<path fill-rule="evenodd" clip-rule="evenodd" fill="#91394C" d="M94.612,167.305c3.198-0.115,5.896,2.123,6.023,4.999
		c0.128,2.874-2.361,5.301-5.56,5.416s-5.896-2.123-6.024-5C88.924,169.845,91.414,167.42,94.612,167.305z"/>
	<path fill-rule="evenodd" clip-rule="evenodd" fill="#414548" d="M131.116,186.986c-11.282,20.376-9.3,49.118,0.071,63.002
		c2.358,3.492,4.651,5.972,6.863,7.606c6.122,4.526,10.725,4.295,11.354-3.234c6.236-6.592,15.515-17.563,17.315-25.67
		C172.226,203.904,149.346,194.883,131.116,186.986z"/>
	<path fill-rule="evenodd" clip-rule="evenodd" fill="#414548" d="M52.45,193.031c11.283,20.376,9.299,49.118-0.071,63.002
		c-2.579,3.821-5.143,6.276-7.419,7.994c-6.37,4.804-9.621,3.778-9.557-1.647c-5.894-6.763-16.292-16.383-16.56-23.012
		c-0.392-9.686,4.307-19.215,11.425-28.543C36.068,203.226,43.37,196.964,52.45,193.031z"/>
	<path fill-rule="evenodd" clip-rule="evenodd" fill="#282D2F" d="M133.084,191.991c-9.738,17.587-8.024,42.396,0.063,54.377
		c7.249,10.742,10.207,8.316,10.918,0.308C144.872,237.599,143.666,206.942,133.084,191.991z"/>
	<path fill-rule="evenodd" clip-rule="evenodd" fill="#282D2F" d="M50.482,198.037c9.738,17.587,8.026,42.396-0.062,54.377
		c-7.25,10.743-10.207,8.315-10.92,0.307C38.694,243.646,39.9,212.988,50.482,198.037z"/>
	<path fill-rule="evenodd" clip-rule="evenodd" fill="#DDDDDC" d="M127.905,145.77c2.363,0.406,3.907,0.125,6.015-1.226
		c2.216-1.425,4.814-1.354,4.943,2.766c0.496,15.973-25.77,29.13-42.492,22.208c-15.741,4-37.486-7.406-43.574-20.987
		c-2.894-6.456,0.617-9.039,6.865-5.564c2.664,1.482,4.743,1.785,8.595,1.416c12.633-1.209,15,3.507,27.318,10.803
		C100.468,143.65,120.349,144.468,127.905,145.77z"/>
	<path fill-rule="evenodd" clip-rule="evenodd" fill="#F09B61" d="M91.608,97.38c-4.123,23.519-4.313,41.754-0.96,65.31
		l13.092-15.427l-11.046,7C91.039,134.712,90.998,116.883,91.608,97.38z"/>
	<path fill-rule="evenodd" clip-rule="evenodd" fill="#414548" d="M31.583,100.35c47.733,10.678,105.958,4.523,138.12,3.109
		l-35.495-8.116c-4.051-20.588-9.466-40.294-15.364-60.053c-2.456-8.229-6.585-18.653-3.702-23.741
		c3.761-6.637,0.39-6.891-5.35-4.207c-25.339,11.859-33.591,53.527-44.155,87.47L31.583,100.35z"/>
	<path fill-rule="evenodd" clip-rule="evenodd" fill="#282D2F" d="M139.347,105.179c11.495-0.639,21.84-1.346,30.356-1.72
		l-35.495-8.116c-4.051-20.588-9.466-40.294-15.364-60.053c-1.567-5.25-3.813-11.393-4.487-16.474
		c-2.106,7.682-1.247,14.127,0.452,22.344c3.769,18.212,5.551,36.916,8.246,55.335C129.293,99.094,134.082,101.614,139.347,105.179z
		"/>
	<path fill-rule="evenodd" clip-rule="evenodd" fill="#5D666D" d="M115.822,5.863c-1.157-0.395-3.332,0.218-6.03,1.479
		C86.86,18.076,77.921,53.225,68.6,84.966c8.681,8.109,13.122,1.45,14.408-7.806c2.717-19.551,2.226-50.026,24.883-64.426
		C111.658,10.341,114.866,8.236,115.822,5.863z"/>
	<path fill-rule="evenodd" clip-rule="evenodd" fill="#5D666D" d="M59.171,95.863l-21.423,3.484
		c16.902,3.913,36.966,6.077,51.293,5.319c8.089-0.427,6.047-3.993-0.062-4.002C78.569,100.643,69.067,98.55,59.171,95.863z"/>
	<circle fill-rule="evenodd" clip-rule="evenodd" fill="#23211D" cx="116.006" cy="123.437" r="5.212"/>
	<circle fill-rule="evenodd" clip-rule="evenodd" fill="#23211D" cx="78.726" cy="122.844" r="3.276"/>
	<path fill-rule="evenodd" clip-rule="evenodd" fill="#F09B61" d="M108.991,124.55c-1.626,8.303,9.629,16.405,14.459,6.19
		C116.67,136.181,110.156,128.824,108.991,124.55z"/>
	<path fill-rule="evenodd" clip-rule="evenodd" fill="#F09B61" d="M81.709,125.643c1.276,4.552-4.629,9.565-7.774,4.093
		C77.955,132.462,81.252,128.074,81.709,125.643z"/>
	<path fill-rule="evenodd" clip-rule="evenodd" fill="#DDDDDC" d="M74.985,110.475c1.447-1.711,3.128-2.245,5.59-2.703
		c2.609-0.485,3.617-1.228,3.455-2.652c-0.296-2.581-2.106-3.129-4.086-2.802c-3.786,0.625-7.662,2.627-9.022,5.361
		c-1.092,2.192-0.415,3.625,0.443,4.175C72.445,112.546,73.322,112.439,74.985,110.475z"/>
	<path fill-rule="evenodd" clip-rule="evenodd" fill="#F5C38B" d="M130.426,116.209c9.044-2.979,14.228-3.67,15.058,2.849
		c1.309,10.29-8.865,6.324-15.188,5.055L130.426,116.209z"/>
	<path fill-rule="evenodd" clip-rule="evenodd" fill="#F5C38B" d="M67.485,118.473c-7.177-1.742-11.226-1.955-11.464,3.137
		c-0.373,8.033,7.247,4.338,12.056,2.964L67.485,118.473z"/>
	<path fill-rule="evenodd" clip-rule="evenodd" fill="#F09B61" d="M133.312,121.31c2.391-2.955,7.085-6.576,10.385-1.161
		C139.207,118.926,137.625,119.438,133.312,121.31z"/>
	<path fill-rule="evenodd" clip-rule="evenodd" fill="#F09B61" d="M63.633,122.909c-1.653-2.793-4.759-6.103-6.428-0.488
		C59.873,120.912,60.873,121.32,63.633,122.909z"/>
	<path fill-rule="evenodd" clip-rule="evenodd" fill="#5D666D" d="M56.901,259.951c3.87,1.819,10.405,9.069,11.588,11.708
		c3.094,6.896,4.417,16.788,2.398,22.98c-9.651,29.612-32.534,19.668-34.435,13.204c2.895,2.884,9.138,2.375,13.803-6.418
		C53.939,294.479,55.724,276.47,56.901,259.951z"/>
	<path fill-rule="evenodd" clip-rule="evenodd" fill="#DDDDDC" d="M134.919,113.318l-1.4-4.718
		c-2.329,2.837-3.239,4.072-4.575,7.014c-1.213,2.669-1.598,4.737-0.021,5.698C134.383,124.644,134.071,116.048,134.919,113.318z"/>
	<path fill-rule="evenodd" clip-rule="evenodd" fill="#DDDDDC" d="M63.719,116.152l0.745-4.993c1.035,1.861,1.918,3.605,2.569,5.583
		c0.591,1.792,0.83,3.207,0.256,3.939C65.298,123.222,64.169,118.003,63.719,116.152z"/>
	<path fill-rule="evenodd" clip-rule="evenodd" fill="#DDDDDC" d="M121.505,111.843c-2.002-2.6-4.422-3.494-7.991-4.33
		c-3.781-0.886-5.206-2.04-4.87-4.113c0.606-3.753,3.291-4.434,6.164-3.821c5.492,1.171,11.026,4.36,12.83,8.451
		c1.448,3.279,0.362,5.329-0.932,6.076C125.081,115.045,123.805,114.83,121.505,111.843z"/>
	<g>
		<path fill="#BD9F5F" d="M64.059,95.393c-1.011-0.178-1.685-1.145-1.505-2.154c0.178-1.011,1.143-1.685,2.154-1.506
			c12.029,2.167,23.464,3.281,34.902,3.358c11.442,0.079,22.909-0.877,34.998-2.844c1.014-0.163,1.97,0.528,2.132,1.541
			c0.163,1.014-0.527,1.969-1.541,2.131c-12.28,1.998-23.946,2.969-35.607,2.889C87.928,98.728,76.287,97.596,64.059,95.393z"/>
		<g>
			<path fill="#90703A" d="M67.208,92.169c0.772,0.131,1.541,0.257,2.308,0.379c1.23,1.033,1.803,2.005,2.459,4.132
				c-0.735-0.106-1.47-0.217-2.209-0.33C68.466,95.27,67.97,94.156,67.208,92.169z"/>
			<path fill="#90703A" d="M78.128,93.74c0.776,0.091,1.551,0.178,2.323,0.26c1.151,0.991,1.712,1.955,2.341,3.968
				c-0.712-0.066-1.426-0.136-2.141-0.21C79.365,96.703,78.856,95.626,78.128,93.74z"/>
			<path fill="#90703A" d="M88.254,94.674c0.812,0.054,1.624,0.104,2.434,0.146c1.005,0.934,1.532,1.909,2.125,3.822
				c-0.642-0.027-1.284-0.056-1.928-0.09C89.504,97.497,88.959,96.467,88.254,94.674z"/>
			<path fill="#90703A" d="M98.859,95.085l0.75,0.006c0.519,0.004,1.038,0.005,1.557,0.004c1.039,0.93,1.582,1.867,2.168,3.701
				c-0.669,0.008-1.339,0.013-2.01,0.015C100.063,97.804,99.532,96.79,98.859,95.085z"/>
			<path fill="#90703A" d="M109.004,94.925c0.71-0.03,1.422-0.064,2.132-0.102c1.113,0.938,1.685,1.833,2.275,3.591
				c-0.71,0.046-1.42,0.086-2.127,0.123C110.156,97.573,109.648,96.567,109.004,94.925z"/>
			<path fill="#90703A" d="M119.575,94.197c0.694-0.065,1.389-0.135,2.084-0.208c1.096,0.923,1.669,1.8,2.249,3.495
				c-0.699,0.079-1.396,0.154-2.093,0.227C120.712,96.766,120.202,95.78,119.575,94.197z"/>
			<path fill="#90703A" d="M129.591,93.01c0.594-0.083,1.187-0.17,1.782-0.259c1.26,0.972,1.904,1.787,2.502,3.38
				c-0.766,0.12-1.529,0.236-2.287,0.348C130.664,95.572,130.199,94.572,129.591,93.01z"/>
		</g>
	</g>
	<g>
		<path fill-rule="evenodd" clip-rule="evenodd" fill="#FFFFFF" d="M109.386,335.819c0,1.891-7.715,3.427-17.231,3.427
			c-9.514,0-17.231-1.536-17.231-3.427v-9.067h34.462V335.819z"/>
		<path fill-rule="evenodd" clip-rule="evenodd" fill="#A8A8A7" d="M92.155,330.177c9.492,0,17.231-1.54,17.231-3.428
			c0-1.887-7.739-3.426-17.231-3.426c-9.49,0-17.231,1.539-17.231,3.426C74.924,328.637,82.665,330.177,92.155,330.177z"/>
		<path fill-rule="evenodd" clip-rule="evenodd" fill="#FFFFFF" d="M103.691,326.309c0,1.266-5.165,2.295-11.537,2.295
			c-6.371,0-11.538-1.029-11.538-2.295v-65.845h23.075V326.309z"/>
		<g>
			<path fill-rule="evenodd" clip-rule="evenodd" fill="#A8A8A7" d="M88.628,270.294L88.628,270.294
				c1.109,0.087,2.015,1.064,2.015,2.173v51.913c0,1.109-0.906,1.945-2.015,1.857l0,0c-1.108-0.086-2.015-1.063-2.015-2.173v-51.912
				C86.613,271.043,87.52,270.207,88.628,270.294z"/>
			<path fill-rule="evenodd" clip-rule="evenodd" fill="#A8A8A7" d="M95.683,270.294L95.683,270.294
				c-1.109,0.087-2.017,1.064-2.017,2.173v51.913c0,1.109,0.907,1.945,2.017,1.857l0,0c1.107-0.086,2.015-1.063,2.015-2.173v-51.912
				C97.697,271.043,96.79,270.207,95.683,270.294z"/>
		</g>
		<path fill-rule="evenodd" clip-rule="evenodd" fill="#A8A8A7" d="M101.324,269.486L101.324,269.486
			c-0.665,0.089-1.208,1.066-1.208,2.176v51.911c0,1.108,0.543,1.944,1.208,1.858l0,0c0.666-0.086,1.21-1.063,1.21-2.172v-51.913
			C102.534,270.237,101.99,269.401,101.324,269.486z"/>
		<path fill-rule="evenodd" clip-rule="evenodd" fill="#A8A8A7" d="M83.388,269.486L83.388,269.486
			c0.665,0.089,1.209,1.066,1.209,2.176v51.911c0,1.108-0.544,1.944-1.209,1.858l0,0c-0.666-0.086-1.209-1.063-1.209-2.172v-51.913
			C82.179,270.237,82.723,269.401,83.388,269.486z"/>
	</g>
	<path fill-rule="evenodd" clip-rule="evenodd" fill="#A8A8A7" d="M107.178,265.771c0,1.65-6.728,2.987-15.023,2.987
		c-8.295,0-15.023-1.337-15.023-2.987v-7.906h30.046V265.771z"/>
	<path fill-rule="evenodd" clip-rule="evenodd" fill="#FFFFFF" d="M109.386,263.083c0,1.893-7.715,3.427-17.231,3.427
		c-9.514,0-17.231-1.534-17.231-3.427v-9.069h34.462V263.083z"/>
	<path fill-rule="evenodd" clip-rule="evenodd" fill="#3A3734" d="M92.155,257.439c9.492,0,17.231-1.539,17.231-3.427
		c0-1.886-7.739-3.426-17.231-3.426c-9.49,0-17.231,1.54-17.231,3.426C74.924,255.9,82.665,257.439,92.155,257.439z"/>
	<path fill-rule="evenodd" clip-rule="evenodd" fill="#726F6E" d="M92.155,255.581c4.342,0,7.882-0.704,7.882-1.568
		c0-0.863-3.54-1.565-7.882-1.565c-4.341,0-7.882,0.702-7.882,1.565C84.273,254.877,87.814,255.581,92.155,255.581z"/>
	<path fill-rule="evenodd" clip-rule="evenodd" fill="#3A3734" d="M88.883,247.813h6.099
		C94.982,253.53,88.883,253.401,88.883,247.813z"/>
	<g>
		<linearGradient id="SVGID_1_" gradientUnits="userSpaceOnUse" x1="84.79" y1="186.0898" x2="98.8947" y2="252.4472">
			<stop  offset="0" style="stop-color:#63B6E5"/>
			<stop  offset="1" style="stop-color:#FFFFFF"/>
		</linearGradient>
		<path fill-rule="evenodd" clip-rule="evenodd" fill="url(#SVGID_1_)" d="M92.155,250.368c16.317,0,29.626-13.309,29.626-29.626
			s-13.309-29.626-29.626-29.626S62.53,204.425,62.53,220.742S75.838,250.368,92.155,250.368z"/>
		<path fill-rule="evenodd" clip-rule="evenodd" fill="#63B6E5" d="M118.953,208.101c1.813,3.834,2.828,8.118,2.828,12.644
			c0,16.357-13.267,29.625-29.626,29.625c-14.968,0-27.344-11.107-29.342-25.526c4.745,10.037,14.962,16.984,26.798,16.984
			c16.359,0,29.626-13.269,29.626-29.627C119.236,210.808,119.139,209.439,118.953,208.101z"/>
		<path fill-rule="evenodd" clip-rule="evenodd" fill="#DFF1FC" d="M92.155,247.87c14.941,0,27.129-12.187,27.129-27.128
			s-12.188-27.129-27.129-27.129c-14.941,0-27.127,12.188-27.127,27.129S77.214,247.87,92.155,247.87z"/>
		<radialGradient id="SVGID_2_" cx="92.1563" cy="220.7422" r="20.2256" gradientUnits="userSpaceOnUse">
			<stop  offset="0" style="stop-color:#FFFFFF"/>
			<stop  offset="0.3899" style="stop-color:#FEFFFF"/>
			<stop  offset="0.5693" style="stop-color:#F8FCFE"/>
			<stop  offset="0.7056" style="stop-color:#EDF7FD"/>
			<stop  offset="0.8202" style="stop-color:#DDF1FC"/>
			<stop  offset="0.92" style="stop-color:#C7E8FA"/>
			<stop  offset="0.9878" style="stop-color:#B2E0F8"/>
		</radialGradient>
		<path fill-rule="evenodd" clip-rule="evenodd" fill="url(#SVGID_2_)" d="M92.155,240.968c11.141,0,20.227-9.085,20.227-20.226
			c0-11.14-9.086-20.226-20.227-20.226c-11.139,0-20.225,9.086-20.225,20.226C71.931,231.883,81.016,240.968,92.155,240.968z"/>
		
			<ellipse transform="matrix(-0.6629 -0.7487 0.7487 -0.6629 -28.8146 398.6809)" fill-rule="evenodd" clip-rule="evenodd" fill="#FFFFFF" cx="75.343" cy="205.827" rx="4.01" ry="9.542"/>
		
			<ellipse transform="matrix(-0.287 -0.9579 0.9579 -0.287 -78.9604 332.7098)" fill-rule="evenodd" clip-rule="evenodd" fill="#FFFFFF" cx="84.343" cy="195.741" rx="1.455" ry="3.464"/>
	</g>
	<path fill-rule="evenodd" clip-rule="evenodd" fill="#F5C38B" d="M132.828,189.856c-3.406-4.896-7.372-5.986-15.473-5.345
		c-11.015,0.871-6.413,7.768,2.914,5.615c-11.391,7.448-7.292,9.329,3.426,8.464c-7.173,7.173-4.029,9.011,4.636,7.659
		c5.243,5.849,5.548,5.932,12.808,5.932C139.367,204.356,137.523,196.606,132.828,189.856z"/>
	<path fill-rule="evenodd" clip-rule="evenodd" fill="#F5C38B" d="M50.622,194.184c3.406-4.895,7.371-5.986,15.472-5.345
		c11.014,0.871,6.414,7.767-2.915,5.615c11.39,7.45,7.292,9.33-3.427,8.463c7.174,7.175,4.031,9.014-4.635,7.66
		c-5.244,5.849-5.236,5.845-12.495,5.845C44.394,208.599,45.926,200.933,50.622,194.184z"/>
	<path fill-rule="evenodd" clip-rule="evenodd" fill="#3A3734" d="M83.799,253.744c-5.271,0.676-9.064-0.719-11.372-4.611
		c-1.143-1.931-1.127-2.934-2.683-4.603c-3.438,2.064-7.085-0.932-2.417-3.313C72.968,238.341,81.696,250.24,83.799,253.744z"/>
	<path fill-rule="evenodd" clip-rule="evenodd" fill="#3A3734" d="M100.733,253.744c5.271,0.676,9.065-0.719,11.373-4.611
		c1.144-1.931,1.129-2.934,2.684-4.603c3.438,2.064,7.086-0.932,2.416-3.313C111.566,238.341,102.839,250.24,100.733,253.744z"/>
	<path fill-rule="evenodd" clip-rule="evenodd" fill="#282D2F" d="M41.484,203.121c-6.905,13.309-10.18,37.74-5.993,53.122
		C32.886,242.899,38.915,212.436,41.484,203.121z"/>
	<path fill-rule="evenodd" clip-rule="evenodd" fill="#282D2F" d="M142.079,197.286c6.904,13.308,10.18,37.74,5.991,53.122
		C150.677,237.064,144.649,206.603,142.079,197.286z"/>
	<path fill-rule="evenodd" clip-rule="evenodd" fill="#CECECD" d="M112.098,150.349c4.079,6.424,4.304,11.758,2.73,16.769
		C120.826,161.183,117.022,153.319,112.098,150.349z"/>
	<path fill-rule="evenodd" clip-rule="evenodd" fill="#CECECD" d="M117.181,149.689c4.149,3.153,5.567,6.524,5.752,10.118
		C125.368,154.567,121.05,150.424,117.181,149.689z"/>
	<path fill-rule="evenodd" clip-rule="evenodd" fill="#CECECD" d="M77.159,149.169c-3.938,3.415-5.134,6.868-5.085,10.466
		C69.303,154.564,73.346,150.15,77.159,149.169z"/>
</g>
</svg>
