<?xml version="1.0" encoding="utf-8"?>
<!-- Generator: Adobe Illustrator 16.0.0, SVG Export Plug-In . SVG Version: 6.00 Build 0)  -->
<!DOCTYPE svg PUBLIC "-//W3C//DTD SVG 1.1//EN" "http://www.w3.org/Graphics/SVG/1.1/DTD/svg11.dtd">
<svg version="1.1" id="Layer_1" xmlns="http://www.w3.org/2000/svg" xmlns:xlink="http://www.w3.org/1999/xlink" x="0px" y="0px"
	 width="135.333px" height="157.996px" viewBox="93.167 186.5 135.333 157.996"
	 enable-background="new 93.167 186.5 135.333 157.996" xml:space="preserve">
<g id="Layer_1_1_">
	<g>
		<g>
			<path d="M195.837,195.887c5.299-0.446,21.262,0.815,16.525,14.165c-2.454,6.918-5.284-6.538-9.443-7.082
				c-1.544-0.202-15.854,7.714-20.067,14.165c-4.682,7.17-7.708,22.611-7.083,29.51c0.769,8.481,9.484,17.588,8.263,20.066
				c-1.943,3.945-43.116,6.615-47.216,0c-2.767-4.464,8.823-37.655,10.624-40.133C158.274,211.666,172.269,197.873,195.837,195.887z
				"/>
			<path d="M224.167,282.056c0,0.787,0,1.574,0,2.361c-32.242,12.565-95.734,14.07-126.303-1.18c0-0.394,0-0.787,0-1.181
				c15.42-16.044,47.757-4.107,70.824-5.902C186.48,274.77,213.241,269.866,224.167,282.056z"/>
			<path d="M116.75,238.381L116.75,238.381"/>
			<path d="M120.292,244.284L120.292,244.284"/>
			<path d="M123.833,250.186L123.833,250.186"/>
		</g>
	</g>
	<path fill="none" stroke="#000000" stroke-miterlimit="10" d="M137.083,262.667c0,0-1.489,10.637-0.691,12.5"/>
	<path fill="none" stroke="#000000" stroke-miterlimit="10" d="M183.375,265.185c0,0,4,7.398,3.75,9.981"/>
	<line fill="none" stroke="#000000" stroke-miterlimit="10" x1="115.25" y1="233.273" x2="131.25" y2="258"/>
	<line fill="none" stroke="#000000" stroke-miterlimit="10" x1="113.25" y1="258" x2="120.292" y2="262.667"/>
	<line fill="none" stroke="#000000" stroke-miterlimit="10" x1="204.5" y1="231" x2="189.25" y2="258"/>
	<line fill="none" stroke="#000000" stroke-miterlimit="10" x1="207.75" y1="258" x2="200" y2="265.185"/>
</g>
<g id="Layer_3">
	<g>
		<g>
			<path d="M131.52,299.333c1.667,0,3.333,0,4.999,0c8.641,3.025,16.322,7.008,16.998,17.998c3.254-1.159,10.881-1.877,13.998,0
				c2.824-9.174,8.488-15.509,17.998-17.998c1.667,0,3.333,0,5,0c7.759,2.239,13.349,6.648,16.998,12.999
				c3.778-0.712,0.029-15.672,4-9.999c0,1.667,0,3.333,0,5c-5.352,12.125-2.226,29.109-18.998,31.996
				c-16.13,2.776-21.932-7.207-24.997-20.998c-4.714-0.564-7.576-1.439-11.999,0c-0.361,22.459-32.354,29.101-39.995,8.999
				c-3.058-8.046-3.489-16.665-3-26.997c0.41,2.092-0.655,11.165,3,12.998C117.365,305.176,124.257,302.069,131.52,299.333z
				 M140.518,337.328c20.172-5.239,12.507-39.484-9.999-34.996C105.849,307.253,115.84,343.738,140.518,337.328z M170.515,313.331
				c-7.735,29.306,40.079,33.723,35.995,3c-1.374-10.336-10.759-16.24-21.997-13.999
				C175.674,304.096,171.353,310.155,170.515,313.331z"/>
			<path fill="#FFFFFF" d="M190.512,299.333c6.359,1.64,19.499-3.501,20.997,3c-3.97-5.673-0.221,9.287-4,9.999
				C203.861,305.981,198.271,301.572,190.512,299.333z"/>
		</g>
	</g>
</g>
<g id="Layer_2" display="none">
	
		<image display="inline" overflow="visible" opacity="0.15" enable-background="new    " width="109" height="87" xlink:href="548EB95A.jpeg"  transform="matrix(1.1212 0 0 1.1315 100.9473 195.0625)">
	</image>
</g>
</svg>
